<?xml version="1.0" encoding="UTF-8"?>
<svg id="Camada_2" data-name="Camada 2" xmlns="http://www.w3.org/2000/svg" viewBox="0 0 438.49 531.62">
  <defs>
    <style>
      .cls-1 {
        fill: none;
      }

      .cls-2 {
        stroke: #000;
        stroke-miterlimit: 10;
      }

      .cls-3 {
        fill: lime;
      }
    </style>
  </defs>
  <g id="Camada_1-2" data-name="Camada 1">
    <g>
      <path class="cls-3" d="M217.14,424.94c-3.78,31.7-45.45,79.23-78.48,52.42-15.76-12.8-14.47-36.41-8.54-53.88-19.98-6.35-33.12-26.9-34.03-47.45-.62-13.98,10.04-28.98,17.04-40.49l-28.79,4.2c-.5,1.77-2.71,2.95-2.76,4.83-.21,8.38,11.02,27.84,2.63,34.48-11.51,9.11-11.41-23.84-15.04-29.14-42.12,4.88-56.65-62.21-15.97-74.94L10.96,86.46c-1.12-2.51-9.08-2.89-10.6-10.4-4.69-23.26,37.71-16.16,19.02,8.03l46.78,191.98c6.92,1.91,10.9,6.55,16.45,10.49l42-16.99c11.22-23.14,28.72-42.25,46.45-60.55-14.13-15.25-24.24-31.82-29.64-52.09C106.25,24.99,280.04-55.43,365.12,45.35c25.55,30.27,33.3,68.72,25.11,107.29,10.75,1.16,30.1,6.15,33.23,18.24,2.83,10.92-3.62,44.16-9.5,54.08-3.68,6.21-9.44,9.33-15.84,12.21,11.09,18.46,22.53,36.94,31.2,56.73,9,20.54,10.96,37.52,7.69,59.98-1,6.87-5.44,16.86-5.83,22.23-.3,4.12,2.73,11.91,2.95,16.88,1.51,34.89-31.93,33.93-55.98,23.46,8.47,35.43,2.93,80.06-41.82,82.1-11.43,23.9-49.49,47.02-71.71,22.81-19.47-21.22-5.3-59.01,10.48-78.43l-12.45-28.49c-1.7-2.03-11.66-.67-15.05-.95-10.41-.86-20.27-4.15-30.46-6.03-.47,5.57.65,12.04,0,17.48ZM352.79,42.18C309.93-.42,236.23-5.17,189.15,33.34l15.32-7.67c59.95-26.76,127.67,4.36,147.17,66.11,9.95,3.18,22.64,5.41,26.03,16.95,1.9,6.46,1.21,29.08.46,36.48-1.69,16.72-15.76,23.04-30.76,24.71-14.32,33.44-44.34,58.78-80.2,66.24l-15.03,2.45c84.96,9.01,157.07-70.81,127.26-154.6-5.34-15-15.33-30.61-26.62-41.84ZM345.14,91.78C319.14,14.52,222.38-2.48,168.63,58.8c-1.83,2.09-4.68,5.36-5.48,8.01,25.98-29.91,64.68-44.24,103.75-33.23,28.21,7.95,52.8,30.43,62.24,58.2h16ZM258.85,54.04c-9.75,2.25-7.05,20.94,5.33,18.37,11.34-2.35,8.56-21.57-5.33-18.37ZM170.15,95.77l3.81-10.66,10.69-21.29c-40.55,33.15-41.72,98.53.49,130.86-1.75-4.98-5.37-9.09-7.7-13.77-8.81-17.7-13.34-37.3-12.28-57.15,27.37,9.13,32.57-29.33,5-27.98ZM276.85,70.93c-5.44,1.52-4.21,11.67,2.56,10.68,6.55-.95,4.7-12.71-2.56-10.68ZM330.3,161.55c10.47.5,29.79-.26,35.69-10.48,3.83-6.64,4.05-27.97,3.15-35.81-.98-8.53-7.39-11.39-14.95-13.04s-17-2.57-24.03,1.05c3.12,2.05,6.72,2.02,10.35,3.62,23.41,10.35,18.77,55.68-11.37,50.82l1.15,3.84ZM322.49,116.1c-14.15,12.71.64,42.03,18.57,32.04,19.52-10.88-.5-48.27-18.57-32.04ZM183.82,132.99c-8.7.27-7.21,13.25,1.78,11.74,6.86-1.15,4.67-11.94-1.78-11.74ZM363.14,203.65c4.25,1.17,8.61,4.64,12.01,7.5,3.92,3.3,13.61,15.85,16.02,17.05,3.04,1.51,12.62-6.78,14.43-9.59,2.88-4.46,8.39-32.46,8.57-38.47.42-14.02-17.28-16.56-27.91-17.31-2.28,6.78-5.4,13.33-8.94,19.54-4.31,7.54-10.17,13.92-14.17,21.29ZM340.14,170.71l-14.01.48c-21.52,41.13-65.64,65.07-112.2,54.15-5.07-1.19-9.4-3.41-14.11-4.88-.99-.31-3-1.69-3.68-.32,51.62,29.76,120.5,3.91,143.99-49.43ZM391.14,241.61c.39-2.3-1.04-3.62-2.18-5.31-3.93-5.83-23.86-27.8-30.34-27.6-1.62.05-18.43,14.37-22.18,16.75-44.54,28.25-102.28,28.3-145.81-1.79-9.69,17.52-18.23,38.14-22.01,57.91-1.97,10.3-2.44,11.94,5,20,7.89,8.55,33.85,22.6,45.2,22.69,2.14.02,5.07-2.24,7.89-2.63,12.78-1.76,17.23,6.9,26.93,7.88s21.27.53,30.94-.03c4.15-.24,8.4.25,12.55.05-.79-7.4.44-15.41,8.26-18.22,7.12-2.56,43.4-2,44.59-3.91l-4.74-45.7,4.87-1.12c2.16,1.52,4.49,33.03,5.45,38.03,1.47,7.65,12.78,14.52,19.92,16.72,6.13-7.06,13.45-9.35,22.63-9.79v5.99c-7.05.15-15.09,2.35-18.57,8.96l5.65,51.53c-.16,1.27-7.73,6.96-9.51,9.52-5.39,7.73-4.78,13.51-1.07,21.92,3.68,8.33,15.05,10.61,23.16,11.83,19.2,2.88,30.67-1.91,29.32-23.31-.28-4.45-3.07-11.34-2.92-14.92.31-6.9,6.21-19.44,6.92-29.06,1.73-23.42-1.61-42.95-13.98-63-11.35,2.31-24.58,10.3-34.91.97-3-2.71-11.03-17.59-12.32-21.65-4.11-12.98,10.87-20.2,21.22-22.71ZM178.13,234.63l6.03-14.53c-7.96-11.62-12.41-4.02-18.83,4.06.11,1.24,6.34,4.64,7.86,5.93,1.81,1.54,2.2,4.85,4.95,4.53ZM140.21,255.53c6.9,2.61,13.72,7.92,20.91,2.56,1.48-1.1,11.18-14.86,11.62-16.45,1.69-6.12-8.33-12.35-13.61-13.53l-5.95,6.98c7.68,5.76,1.39,15.34-6.72,9.65-1.82-.19-7.25,9.38-6.25,10.79ZM402.13,257.61c.57-.59-4.69-10.82-7.44-10.94-3.86-.18-17.83,6.86-19.12,10.9-1.4,4.41,7.13,20.43,10.52,23.56,8.02,7.4,19.37,1.13,27.62-2.5l-6.59-15.02c-2.95-.71-1.51,2.11-3.42,4.04-8.72,8.8-17.78-13.44-1.57-10.04ZM167.13,260.61c-10.43,8.92-20.18,3.5-30.98-1l-5.01,10.98c7.41-.09,12.82,5,17.53,10,.66,1.49-3.11,3.61-4.2,3.89s-5.96-6.94-8.64-7.07l-9.07-1.77-40.2,15.92-.29,1.34c7.64,12.51,7.84,27.18,2.88,40.64,8.54-2.63,24.38-2.62,31.92-6.56,2.96-1.55,12.28-11.03,16.76-14.23,3.06-2.19,17.5-10.33,18.4-11.59,1.36-1.89,1.05-6.99,1.97-10.02s2.82-5.47,3.67-8.32c2.13-7.21,3.34-14.92,5.26-22.2ZM54.88,281.83c-32.34,4.88-23.53,64.24,9.31,62.23,35.37-2.16,27.03-67.71-9.31-62.23ZM156.13,309.56c-21.66,10.49-41.49,29.19-50.47,51.96-3.6,9.13-4.08,12.27-2.05,22,8.9,42.73,55.02,42.65,88.22,29.12,12.46-5.08,29.12-12.62,28.89-28.17h5.44c.18,2.4-.02,4.71-.45,7.07-.51,2.83-4.48,9.14-2.55,10.42s16.36,3.93,19.64,4.36c5.72.76,11.64,1.88,17.25.04.06-6.81,1.31-13.53,5.01-19.26,9.51-1.1,2.43,7.09,1.54,11.31-2.52,11.97,15.87,47.09,23.15,57.91,13.26,19.71,39.97,45.55,65.44,30.59,28.84-16.94,21.08-72.09,8.47-97.41-2.92,3.7-6.46,5.31-11.11,5.86-12.95,1.54-27.67-.07-40.76,2.07-13.95-2.34-13.19-15.69-13.62-26.94l-35.49-3c-2.97.27-6.43,8.95-15,10.02-8.07,1.01-34.43-3.09-39.97-9.07-3.41-3.68-5.49-13.51-6.57-14.42-1.93-1.64-15.08-6.22-19.3-8.69-13.71-8.04-24.47-19.08-25.7-35.77ZM357.09,355.46l-1.01-32.35c-1.75-8.12-7.44-4.66-12.45-4.56-10.36.19-22.86-.21-33.01.99-4.41.52-5.98,2.07-6.5,6.49-1.3,10.96,1.18,26.66,2.01,37.99.57,7.77-.6,15.8,2.15,23.33l28.86-.86c.99-1-3.03-23.74-.52-27.99,2.07-3.51,16.13-1.13,20.46-3.04ZM372.98,321.71l-8.82-4.16,3,63.93c5.9-7.57,11.43-7.89,10.97-18.47-.56-13.18-4.59-27.89-5.15-41.3ZM229.93,326.76c-12.86,1.24-14.04,15.33-4.73,22.19,8.97,6.62,26.01,5.65,23.87-8.86-1.17-7.92-11.67-14.06-19.15-13.34ZM213.14,333.53h-2.99c-.54,8.31-3.85,24.11,3.48,30,4.3,3.46,27.16,6.89,32.79,5.74,8.93-1.82,11.67-16.25,12.09-23.97.08-1.53,1.26-2.46-.88-3.77l-3.62,9.34c-12.97,17.03-43.25,3.14-40.87-17.35ZM345.86,363.72c-2.54.57-3.89,2.14-4.29,4.72-.26,1.66.66,12.41,1.31,13.81,1.56,3.35,14.43,4.6,15.31-2.22,1.36-10.52.48-19.18-12.33-16.31ZM211.14,425.94c.6-4.79-.44-10.56,0-15.48-23,12.7-49.59,20.81-75.97,15.01-7.59,23.6-3.25,55.98,28.46,52.91,22.08-2.14,44.88-31.51,47.51-52.44ZM330.14,497.38c-23.6-6.2-39.36-27.32-50.99-47.48-1-.71-2.34,1.27-2.98,2.04-12.95,15.46-21.78,46.01-8.44,63.32,17.46,22.66,49.61,3.72,61.41-15.4.49-.79,1.45-.93,1-2.48Z"/>
      <path class="cls-3" d="M124.14,129.75c-.74,1.96-3.27,2.7-5.02,3.47-17.46,7.64-37.21.47-55.23,3.77-8.91,1.63-15.74,6.07-23.74,9.74l-14.01-58.93c12.83-1.91,26.7-1.46,38.69,3.8,22.48,9.86,30.98,40.06,59.31,38.16Z"/>
      <path class="cls-1" d="M156.13,311.56c1.23,16.69,11.99,27.72,25.7,35.77,4.22,2.48,17.37,7.06,19.3,8.69,1.07.91,3.16,10.74,6.57,14.42,5.54,5.98,31.9,10.08,39.97,9.07,8.56-1.07,12.03-9.75,15-10.02l35.49,3c.43,11.25-.33,24.6,13.62,26.94,13.09-2.14,27.81-.53,40.76-2.07,4.65-.55,8.19-2.16,11.11-5.86,12.61,25.32,20.37,80.47-8.47,97.41-25.47,14.96-52.18-10.88-65.44-30.59-7.28-10.82-25.67-45.93-23.15-57.91.89-4.22,7.97-12.41-1.54-11.31-3.7,5.73-4.95,12.45-5.01,19.26-5.62,1.84-11.53.71-17.25-.04-3.27-.43-17.68-3.05-19.64-4.36s2.03-7.59,2.55-10.42c.43-2.36.63-4.66.45-7.05h-5.44c.23,15.54-16.42,23.08-28.89,28.16-33.2,13.53-79.32,13.62-88.22-29.12-2.03-9.73-1.55-12.87,2.05-22,8.98-22.77,28.81-41.47,50.47-51.96Z"/>
      <path class="cls-1" d="M391.14,243.61c-10.35,2.51-25.33,9.73-21.22,22.71,1.29,4.06,9.32,18.94,12.32,21.65,10.32,9.33,23.56,1.33,34.91-.97,12.37,20.05,15.71,39.58,13.98,63-.71,9.62-6.62,22.16-6.92,29.06-.16,3.58,2.63,10.47,2.92,14.92,1.35,21.39-10.12,26.19-29.32,23.31-8.11-1.22-19.48-3.49-23.16-11.83-3.71-8.41-4.32-14.19,1.07-21.92,1.79-2.56,9.35-8.24,9.51-9.52l-5.65-51.53c3.48-6.6,11.52-8.8,18.57-8.96v-5.99c-9.18.44-16.5,2.73-22.63,9.79-7.15-2.2-18.46-9.07-19.92-16.72-.96-5-3.29-36.51-5.45-38.03l-4.87,1.12,4.74,45.7c-1.19,1.9-37.47,1.35-44.59,3.91-7.82,2.81-9.05,10.82-8.26,18.22-4.15.21-8.4-.29-12.55-.05-9.68.56-21.24,1.02-30.94.03s-14.15-9.64-26.93-7.88c-2.83.39-5.76,2.64-7.89,2.63-11.35-.09-37.31-14.14-45.2-22.69-7.44-8.06-6.97-9.7-5-20,3.78-19.78,12.32-40.39,22.01-57.91,43.53,30.09,101.27,30.04,145.81,1.79,3.74-2.37,20.56-16.69,22.18-16.75,6.48-.2,26.41,21.77,30.34,27.6,1.14,1.69,2.56,3.01,2.18,5.31ZM269.83,262.91c-3.58-4.21-12.37-5.46-17.67-6.81-12.83-3.27-32.17-8.67-44.77-10.22-8.44-1.04-15.12-.2-17.78,8.71-2.28,7.62-6.21,31.58-6.48,39.52-.29,8.6,3.46,12.9,11.23,15.73,12.09,4.41,43.16,12.92,55.54,14.44,9.04,1.11,14.69-2.84,16.97-11.51s6.23-31.55,6.36-39.68c.05-3.02-1.46-7.9-3.39-10.18Z"/>
      <path class="cls-1" d="M352.79,44.18c11.29,11.22,21.28,26.83,26.62,41.84,29.8,83.79-42.31,163.61-127.26,154.6l15.03-2.45c35.86-7.46,65.88-32.8,80.2-66.24,15-1.67,29.07-7.99,30.76-24.71.75-7.41,1.44-30.02-.46-36.48-3.39-11.54-16.09-13.77-26.03-16.95C332.14,32.03,264.42.91,204.47,27.67l-15.32,7.67C236.23-3.17,309.93,1.58,352.79,44.18Z"/>
      <path class="cls-1" d="M211.14,427.94c-2.63,20.93-25.43,50.3-47.51,52.44-31.71,3.07-36.05-29.31-28.46-52.91,26.38,5.8,52.97-2.31,75.97-15.01-.44,4.92.6,10.69,0,15.48Z"/>
      <path class="cls-1" d="M167.13,262.61c-1.93,7.28-3.13,14.99-5.26,22.2-.84,2.85-2.73,5.26-3.67,8.32s-.62,8.12-1.97,10.02c-.9,1.26-15.34,9.4-18.4,11.59-4.48,3.2-13.79,12.68-16.76,14.23-7.54,3.94-23.38,3.93-31.92,6.56,4.96-13.46,4.76-28.13-2.88-40.64l.29-1.34,40.2-15.92,9.07,1.77c2.69.13,7.6,7.34,8.64,7.07,1.1-.28,4.86-2.4,4.2-3.89-4.71-5-10.12-10.09-17.53-10l5.01-10.98c10.8,4.49,20.55,9.91,30.98,1Z"/>
      <path class="cls-1" d="M330.14,499.38c.45,1.55-.51,1.69-1,2.48-11.79,19.12-43.95,38.06-61.41,15.4-13.34-17.31-4.51-47.87,8.44-63.32.64-.77,1.98-2.75,2.98-2.04,11.63,20.16,27.39,41.28,50.99,47.48Z"/>
      <path class="cls-1" d="M357.09,357.46c-4.33,1.9-18.38-.47-20.46,3.04-2.51,4.25,1.5,26.99.52,27.99l-28.86.86c-2.75-7.53-1.58-15.56-2.15-23.33-.83-11.33-3.31-27.03-2.01-37.99.52-4.42,2.09-5.97,6.5-6.49,10.15-1.19,22.64-.79,33.01-.99,5.01-.09,10.7-3.55,12.45,4.56l1.01,32.35ZM325.14,339.53c7.12,1.25,8.74-2.43,6.07-8.56l-5.63.51-.44,8.05ZM322.15,331.53c-7.12-1.25-8.75,2.44-6.07,8.56l6.07.44v-9Z"/>
      <path class="cls-1" d="M54.88,283.83c36.34-5.48,44.68,60.07,9.31,62.23-32.84,2.01-41.65-57.35-9.31-62.23Z"/>
      <path class="cls-1" d="M363.14,205.65c4-7.37,9.86-13.75,14.17-21.29,3.54-6.2,6.67-12.75,8.94-19.54,10.63.75,28.33,3.29,27.91,17.31-.18,6.01-5.69,34-8.57,38.47-1.81,2.8-11.39,11.1-14.43,9.59-2.41-1.19-12.1-13.75-16.02-17.05-3.4-2.86-7.76-6.33-12.01-7.5Z"/>
      <path class="cls-1" d="M345.14,93.78h-16c-9.43-27.78-34.03-50.26-62.24-58.2-39.08-11.01-77.78,3.32-103.75,33.23.79-2.65,3.64-5.92,5.48-8.01C222.38-.48,319.14,16.52,345.14,93.78Z"/>
      <path class="cls-1" d="M340.14,172.71c-23.5,53.35-92.37,79.2-143.99,49.43.68-1.37,2.69,0,3.68.32,4.71,1.47,9.04,3.7,14.11,4.88,46.55,10.91,90.68-13.02,112.2-54.15l14.01-.48Z"/>
      <path class="cls-1" d="M330.3,163.55l-1.15-3.84c30.14,4.86,34.78-40.48,11.37-50.82-3.63-1.61-7.23-1.58-10.35-3.62,7.03-3.62,16.55-2.68,24.03-1.05s13.97,4.51,14.95,13.04c.9,7.84.69,29.18-3.15,35.81-5.91,10.22-25.22,10.98-35.69,10.48Z"/>
      <path class="cls-1" d="M322.49,118.1c18.07-16.24,38.09,21.16,18.57,32.04-17.93,9.99-32.72-19.33-18.57-32.04Z"/>
      <path class="cls-1" d="M402.13,259.61c-16.2-3.4-7.14,18.84,1.57,10.04,1.91-1.93.47-4.75,3.42-4.04l6.59,15.02c-8.24,3.63-19.6,9.9-27.62,2.5-3.39-3.13-11.92-19.15-10.52-23.56,1.28-4.04,15.25-11.07,19.12-10.9,2.76.13,8.01,10.35,7.44,10.94Z"/>
      <path class="cls-1" d="M213.14,335.53c-2.38,20.5,27.9,34.38,40.87,17.35l3.62-9.34c2.14,1.31.96,2.24.88,3.77-.42,7.71-3.17,22.14-12.09,23.97-5.63,1.15-28.49-2.29-32.79-5.74-7.33-5.89-4.02-21.69-3.48-30h2.99Z"/>
      <path class="cls-1" d="M229.93,328.76c7.48-.72,17.98,5.41,19.15,13.34,2.14,14.51-14.9,15.47-23.87,8.86-9.31-6.87-8.14-20.95,4.73-22.19Z"/>
      <path class="cls-1" d="M372.98,323.71c.56,13.41,4.59,28.12,5.15,41.3.45,10.58-5.08,10.91-10.97,18.47l-3-63.93,8.82,4.16Z"/>
      <path class="cls-1" d="M140.21,257.53c-1.01-1.41,4.43-10.99,6.25-10.79,8.11,5.68,14.4-3.89,6.72-9.65l5.95-6.98c5.28,1.18,15.3,7.41,13.61,13.53-.44,1.6-10.14,15.35-11.62,16.45-7.19,5.36-14.01.05-20.91-2.56Z"/>
      <path class="cls-1" d="M345.86,365.72c12.81-2.87,13.69,5.78,12.33,16.31-.88,6.82-13.75,5.56-15.31,2.22-.65-1.39-1.57-12.15-1.31-13.81.4-2.57,1.75-4.15,4.29-4.72Z"/>
      <path class="cls-1" d="M178.13,236.63c-2.74.32-3.14-2.99-4.95-4.53-1.52-1.29-7.75-4.7-7.86-5.93,6.43-8.09,10.87-15.69,18.83-4.06l-6.03,14.53Z"/>
      <path class="cls-3" d="M269.83,262.91c1.94,2.28,3.44,7.16,3.39,10.18-.13,8.14-4.19,31.45-6.36,39.68-2.28,8.66-7.93,12.62-16.97,11.51-12.38-1.52-43.45-10.03-55.54-14.44-7.77-2.83-11.52-7.14-11.23-15.73.27-7.94,4.2-31.9,6.48-39.52,2.66-8.91,9.34-9.75,17.78-8.71,12.59,1.55,31.94,6.95,44.77,10.22,5.3,1.35,14.09,2.6,17.67,6.81ZM256.9,314.3c2.78-3.24,4.53-35.99,6.93-42.42-.18-4.83-4.93-5.65-8.68-6.78-17.19-5.19-35.9-8.06-53.28-12.32-2.03.96-3.03,2.28-3.65,4.42-1.89,6.46-5.64,32.32-5.69,39.07-.04,5.06,3.22,5.5,7.59,6.83,12.21,3.71,38.86,10.97,50.81,12.25,1.73.19,4.8.32,5.98-1.04Z"/>
      <path class="cls-3" d="M322.15,331.53v9l-6.07-.44c-2.68-6.12-1.05-9.81,6.07-8.56Z"/>
      <path class="cls-3" d="M325.14,339.53l.44-8.05,5.63-.51c2.66,6.13,1.05,9.81-6.07,8.56Z"/>
      <path class="cls-1" d="M256.9,314.3c-1.17,1.37-4.25,1.23-5.98,1.04-11.95-1.28-38.6-8.55-50.81-12.25-4.37-1.33-7.63-1.77-7.59-6.83.05-6.76,3.8-32.62,5.69-39.07.63-2.14,1.63-3.46,3.65-4.42,17.37,4.26,36.09,7.13,53.28,12.32,3.75,1.13,8.5,1.96,8.68,6.78-2.4,6.44-4.15,39.18-6.93,42.42ZM234.91,294.34c1.99-2.09,4.17-20.71,2.31-23.32-1.39-1.95-21.26-6.72-24.83-7.16-2.19-.27-4.96-.9-6.85.64-2.41,1.97-3.81,18.99-3.18,22.87.77,1.34,25.41,7.7,28.55,7.97,1.26.11,3.13-.09,4-1.01Z"/>
      <path class="cls-3" d="M234.91,294.34c-.87.92-2.74,1.12-4,1.01-3.14-.27-27.78-6.63-28.55-7.97-.63-3.88.77-20.9,3.18-22.87,1.89-1.55,4.66-.91,6.85-.64,3.57.44,23.44,5.21,24.83,7.16,1.86,2.6-.32,21.22-2.31,23.32ZM231.9,276.83c-1.37-1.38-14.85-4.69-16.75-3.77-3.26,1.57-4.08,10.94-2.53,13.54,1.24,2.08,16.42,5.12,18.38,3.84,1.12-3.35,3.7-10.8.89-13.62Z"/>
      <path class="cls-1" d="M231.9,276.83c2.8,2.82.23,10.26-.89,13.62-1.97,1.27-17.14-1.77-18.38-3.84-1.55-2.61-.73-11.97,2.53-13.54,1.9-.92,15.38,2.39,16.75,3.77Z"/>
      <circle class="cls-2" cx="229.71" cy="128.7" r="86.35"/>
      <path class="cls-3" d="M170.15,97.77c27.57-1.34,22.37,37.11-5,27.98-1.05,19.85,3.48,39.45,12.28,57.15,2.33,4.69,5.96,8.79,7.7,13.77-42.21-32.33-41.04-97.71-.49-130.86l-10.69,21.29-3.81,10.66Z"/>
      <path class="cls-3" d="M258.85,56.04c13.89-3.2,16.67,16.02,5.33,18.37-12.38,2.57-15.08-16.13-5.33-18.37Z"/>
      <path class="cls-3" d="M183.82,134.99c6.45-.2,8.64,10.59,1.78,11.74-8.99,1.51-10.48-11.48-1.78-11.74Z"/>
      <path class="cls-3" d="M276.85,72.93c7.25-2.03,9.1,9.73,2.56,10.68-6.77.98-7.99-9.16-2.56-10.68Z"/>
    </g>
  </g>
</svg>