<?xml version="1.0" encoding="UTF-8"?>
<svg id="Camada_2" data-name="Camada 2" xmlns="http://www.w3.org/2000/svg" viewBox="0 0 467.51 467.51">
  <defs>
    <style>
      .cls-1 {
        fill: lime;
      }
    </style>
  </defs>
  <g id="Camada_1-2" data-name="Camada 1">
    <path class="cls-1" d="M467.01,255.43l.5-32.14-46.94-16.47c-1.66-11.59-4.37-22.84-8.04-33.67l34.07-37.26-15.64-28.09-48.91,9.21c-7.15-9.07-15.11-17.47-23.78-25.09l10.88-49.35-27.59-16.5-37.71,32.4c-10.62-4.25-21.71-7.57-33.19-9.84L255.43.5l-32.14-.5-16.47,46.94c-11.59,1.66-22.84,4.37-33.67,8.04l-37.26-34.07-28.09,15.64,9.21,48.91c-9.07,7.15-17.47,15.11-25.09,23.78l-49.35-10.88-16.5,27.59,32.4,37.71c-4.25,10.62-7.57,21.71-9.84,33.19L.5,212.08l-.5,32.14,46.94,16.47c1.66,11.59,4.37,22.84,8.04,33.67l-34.07,37.26,15.64,28.09,48.91-9.21c7.15,9.07,15.11,17.47,23.78,25.09l-10.88,49.35,27.59,16.5,37.71-32.4c10.62,4.25,21.71,7.57,33.19,9.84l15.24,48.14,32.14.5,16.47-46.94c11.59-1.66,22.84-4.37,33.67-8.04l37.26,34.07,28.09-15.64-9.21-48.91c9.07-7.15,17.47-15.11,25.09-23.78l49.35,10.88,16.5-27.59-32.4-37.71c4.25-10.62,7.57-21.71,9.84-33.19l48.14-15.24ZM260.26,83.91c38.96,6.84,72.73,28.48,95.42,58.83l-33.6,18.71c-15.68-19.13-37.45-33.09-62.42-38.89l.6-38.65ZM215.89,82.64l-.59,38.44c-25.38,4.13-48,16.64-64.87,34.65l-33.18-19.84c24.34-28.94,59.23-48.64,98.64-53.25ZM90.72,285.73c-6.16-16.93-9.4-35.24-9.1-54.32.32-20.51,4.69-40.01,12.32-57.75l33.01,19.74c-4.54,12.02-7.12,25.01-7.33,38.6-.19,12.15,1.54,23.88,4.88,34.92l-33.78,18.81ZM207.25,383.6c-38.96-6.84-72.73-28.48-95.42-58.83l33.6-18.71c15.68,19.13,37.45,33.09,62.42,38.89l-.6,38.65ZM232.64,305.65c-39.7-.61-71.39-33.3-70.78-73,.61-39.7,33.3-71.39,73-70.78,39.7.61,71.39,33.3,70.78,73-.61,39.7-33.3,71.39-73,70.78ZM251.62,384.87l.59-38.44c25.38-4.13,48-16.64,64.87-34.65l33.18,19.84c-24.34,28.94-59.23,48.64-98.64,53.25ZM385.9,236.1c-.32,20.51-4.69,40.01-12.32,57.75l-33.01-19.74c4.54-12.02,7.12-25.01,7.33-38.6.19-12.15-1.54-23.89-4.89-34.92l33.78-18.81c6.16,16.93,9.4,35.24,9.1,54.32Z"/>
  </g>
</svg>